# xmcd
#
# Track frame offsets:
#	150
#	14113
#	28168
#	40937
#	55246
#	72491
#	83104
#	102493
#	114326
#	126650
#	145464
#	155868
#	167141
#	179722
#	192335
#	208480
#
# Disc length: 3047 seconds
#
# Revision: 1
# Processed by: cddbd v1.5.2PL0 Copyright (c) Steve Scherf et al.
# Submitted via: audiograbber 1.83.01
#
DISCID=060be510
DTITLE=Jarek Nohavica a pratele - Noc plna hvezd, 29.6.2012, Trinec CD1
DYEAR=2014
DGENRE=Folk
TTITLE0=Tesinska
TTITLE1=Jdou po me jdou
TTITLE2=Ostravo
TTITLE3=Jarek a Droga: Vim jak boli
TTITLE4=Doga: Cammaro
TTITLE5=Zatimco se koupes
TTITLE6=Damse macabre
TTITLE7=Zatanci
TTITLE8=Jarek a Gorole: Ide synek do mastala
TTITLE9=Gorole: Za gorami, za lasami
TTITLE10=Do prdele prace
TTITLE11=Poker
TTITLE12=Otevri mi, lasko moje
TTITLE13=Dezo
TTITLE14=Jarek a Ewa Farna: Tam gdze nie ma drog
TTITLE15=Ewa Farna: Maska
EXTD=
EXTT0=
EXTT1=
EXTT2=
EXTT3=
EXTT4=
EXTT5=
EXTT6=
EXTT7=
EXTT8=
EXTT9=
EXTT10=
EXTT11=
EXTT12=
EXTT13=
EXTT14=
EXTT15=
PLAYORDER=
